<svg width="111" height="19" viewBox="0 0 111 19" fill="none" xmlns="http://www.w3.org/2000/svg">
<path d="M17.4649 4.512C19.0969 4.512 20.4089 5.016 21.4009 6.024C22.4089 7.016 22.9129 8.408 22.9129 10.2V18H19.5529V10.656C19.5529 9.616 19.2889 8.824 18.7609 8.28C18.2329 7.72 17.5129 7.44 16.6009 7.44C15.6889 7.44 14.9609 7.72 14.4169 8.28C13.8889 8.824 13.6249 9.616 13.6249 10.656V18H10.2649V10.656C10.2649 9.616 10.0009 8.824 9.47288 8.28C8.94488 7.72 8.22488 7.44 7.31288 7.44C6.38488 7.44 5.64888 7.72 5.10488 8.28C4.57688 8.824 4.31288 9.616 4.31288 10.656V18H0.952875V4.704H4.31288V6.312C4.74488 5.752 5.29688 5.312 5.96888 4.992C6.65688 4.672 7.40888 4.512 8.22488 4.512C9.26488 4.512 10.1929 4.736 11.0089 5.184C11.8249 5.616 12.4569 6.24 12.9049 7.056C13.3369 6.288 13.9609 5.672 14.7769 5.208C15.6089 4.744 16.5049 4.512 17.4649 4.512ZM32.0053 18.216C30.7253 18.216 29.5733 17.936 28.5493 17.376C27.5253 16.8 26.7173 15.992 26.1253 14.952C25.5493 13.912 25.2613 12.712 25.2613 11.352C25.2613 9.992 25.5573 8.792 26.1493 7.752C26.7573 6.712 27.5813 5.912 28.6213 5.352C29.6613 4.776 30.8213 4.488 32.1013 4.488C33.3813 4.488 34.5413 4.776 35.5813 5.352C36.6213 5.912 37.4373 6.712 38.0293 7.752C38.6373 8.792 38.9413 9.992 38.9413 11.352C38.9413 12.712 38.6293 13.912 38.0053 14.952C37.3973 15.992 36.5653 16.8 35.5093 17.376C34.4693 17.936 33.3013 18.216 32.0053 18.216ZM32.0053 15.288C32.6133 15.288 33.1813 15.144 33.7093 14.856C34.2533 14.552 34.6853 14.104 35.0053 13.512C35.3253 12.92 35.4853 12.2 35.4853 11.352C35.4853 10.088 35.1493 9.12 34.4773 8.448C33.8213 7.76 33.0133 7.416 32.0533 7.416C31.0933 7.416 30.2853 7.76 29.6293 8.448C28.9893 9.12 28.6693 10.088 28.6693 11.352C28.6693 12.616 28.9813 13.592 29.6053 14.28C30.2453 14.952 31.0453 15.288 32.0053 15.288ZM40.542 11.304C40.542 9.96 40.806 8.768 41.334 7.728C41.878 6.688 42.614 5.888 43.542 5.328C44.47 4.768 45.502 4.488 46.638 4.488C47.502 4.488 48.326 4.68 49.11 5.064C49.894 5.432 50.518 5.928 50.982 6.552V0.24H54.39V18H50.982V16.032C50.566 16.688 49.982 17.216 49.23 17.616C48.478 18.016 47.606 18.216 46.614 18.216C45.494 18.216 44.47 17.928 43.542 17.352C42.614 16.776 41.878 15.968 41.334 14.928C40.806 13.872 40.542 12.664 40.542 11.304ZM51.006 11.352C51.006 10.536 50.846 9.84 50.526 9.264C50.206 8.672 49.774 8.224 49.23 7.92C48.686 7.6 48.102 7.44 47.478 7.44C46.854 7.44 46.278 7.592 45.75 7.896C45.222 8.2 44.79 8.648 44.454 9.24C44.134 9.816 43.974 10.504 43.974 11.304C43.974 12.104 44.134 12.808 44.454 13.416C44.79 14.008 45.222 14.464 45.75 14.784C46.294 15.104 46.87 15.264 47.478 15.264C48.102 15.264 48.686 15.112 49.23 14.808C49.774 14.488 50.206 14.04 50.526 13.464C50.846 12.872 51.006 12.168 51.006 11.352ZM70.0316 11.064C70.0316 11.544 69.9996 11.976 69.9356 12.36H60.2156C60.2956 13.32 60.6316 14.072 61.2236 14.616C61.8156 15.16 62.5436 15.432 63.4076 15.432C64.6556 15.432 65.5436 14.896 66.0716 13.824H69.6956C69.3116 15.104 68.5756 16.16 67.4876 16.992C66.3996 17.808 65.0636 18.216 63.4796 18.216C62.1996 18.216 61.0476 17.936 60.0236 17.376C59.0156 16.8 58.2236 15.992 57.6476 14.952C57.0876 13.912 56.8076 12.712 56.8076 11.352C56.8076 9.976 57.0876 8.768 57.6476 7.728C58.2076 6.688 58.9916 5.888 59.9996 5.328C61.0076 4.768 62.1676 4.488 63.4796 4.488C64.7436 4.488 65.8716 4.76 66.8636 5.304C67.8716 5.848 68.6476 6.624 69.1916 7.632C69.7516 8.624 70.0316 9.768 70.0316 11.064ZM66.5516 10.104C66.5356 9.24 66.2236 8.552 65.6156 8.04C65.0076 7.512 64.2636 7.248 63.3836 7.248C62.5516 7.248 61.8476 7.504 61.2716 8.016C60.7116 8.512 60.3676 9.208 60.2396 10.104H66.5516ZM75.8441 6.768C76.2761 6.064 76.8361 5.512 77.5241 5.112C78.2281 4.712 79.0281 4.512 79.9241 4.512V8.04H79.0361C77.9801 8.04 77.1801 8.288 76.6361 8.784C76.1081 9.28 75.8441 10.144 75.8441 11.376V18H72.4841V4.704H75.8441V6.768ZM89.5553 4.512C91.1393 4.512 92.4193 5.016 93.3953 6.024C94.3713 7.016 94.8593 8.408 94.8593 10.2V18H91.4993V10.656C91.4993 9.6 91.2353 8.792 90.7073 8.232C90.1793 7.656 89.4593 7.368 88.5473 7.368C87.6193 7.368 86.8833 7.656 86.3393 8.232C85.8113 8.792 85.5473 9.6 85.5473 10.656V18H82.1873V4.704H85.5473V6.36C85.9953 5.784 86.5633 5.336 87.2513 5.016C87.9553 4.68 88.7233 4.512 89.5553 4.512ZM103.958 18.216C102.678 18.216 101.526 17.936 100.502 17.376C99.4784 16.8 98.6704 15.992 98.0784 14.952C97.5024 13.912 97.2144 12.712 97.2144 11.352C97.2144 9.992 97.5104 8.792 98.1024 7.752C98.7104 6.712 99.5344 5.912 100.574 5.352C101.614 4.776 102.774 4.488 104.054 4.488C105.334 4.488 106.494 4.776 107.534 5.352C108.574 5.912 109.39 6.712 109.982 7.752C110.59 8.792 110.894 9.992 110.894 11.352C110.894 12.712 110.582 13.912 109.958 14.952C109.35 15.992 108.518 16.8 107.462 17.376C106.422 17.936 105.254 18.216 103.958 18.216ZM103.958 15.288C104.566 15.288 105.134 15.144 105.662 14.856C106.206 14.552 106.638 14.104 106.958 13.512C107.278 12.92 107.438 12.2 107.438 11.352C107.438 10.088 107.102 9.12 106.43 8.448C105.774 7.76 104.966 7.416 104.006 7.416C103.046 7.416 102.238 7.76 101.582 8.448C100.942 9.12 100.622 10.088 100.622 11.352C100.622 12.616 100.934 13.592 101.558 14.28C102.198 14.952 102.998 15.288 103.958 15.288Z" fill="#47585B"/>
</svg>
