<svg width="157" height="20" viewBox="0 0 157 20" fill="none" xmlns="http://www.w3.org/2000/svg">
<path d="M7.46172 15.904L10.8217 5.704H14.3977L9.47772 19H5.39772L0.501719 5.704H4.10172L7.46172 15.904ZM17.9889 4.12C17.3969 4.12 16.9009 3.936 16.5009 3.568C16.1169 3.184 15.9249 2.712 15.9249 2.152C15.9249 1.592 16.1169 1.128 16.5009 0.759999C16.9009 0.375999 17.3969 0.183999 17.9889 0.183999C18.5809 0.183999 19.0689 0.375999 19.4529 0.759999C19.8529 1.128 20.0529 1.592 20.0529 2.152C20.0529 2.712 19.8529 3.184 19.4529 3.568C19.0689 3.936 18.5809 4.12 17.9889 4.12ZM19.6449 5.704V19H16.2849V5.704H19.6449ZM22.1006 12.304C22.1006 10.96 22.3646 9.768 22.8926 8.728C23.4366 7.688 24.1726 6.888 25.1006 6.328C26.0286 5.768 27.0606 5.488 28.1966 5.488C29.0606 5.488 29.8846 5.68 30.6686 6.064C31.4526 6.432 32.0766 6.928 32.5406 7.552V1.24H35.9486V19H32.5406V17.032C32.1246 17.688 31.5406 18.216 30.7886 18.616C30.0366 19.016 29.1646 19.216 28.1726 19.216C27.0526 19.216 26.0286 18.928 25.1006 18.352C24.1726 17.776 23.4366 16.968 22.8926 15.928C22.3646 14.872 22.1006 13.664 22.1006 12.304ZM32.5646 12.352C32.5646 11.536 32.4046 10.84 32.0846 10.264C31.7646 9.672 31.3326 9.224 30.7886 8.92C30.2446 8.6 29.6606 8.44 29.0366 8.44C28.4126 8.44 27.8366 8.592 27.3086 8.896C26.7806 9.2 26.3486 9.648 26.0126 10.24C25.6926 10.816 25.5326 11.504 25.5326 12.304C25.5326 13.104 25.6926 13.808 26.0126 14.416C26.3486 15.008 26.7806 15.464 27.3086 15.784C27.8526 16.104 28.4286 16.264 29.0366 16.264C29.6606 16.264 30.2446 16.112 30.7886 15.808C31.3326 15.488 31.7646 15.04 32.0846 14.464C32.4046 13.872 32.5646 13.168 32.5646 12.352ZM38.3662 12.304C38.3662 10.96 38.6302 9.768 39.1582 8.728C39.7022 7.688 40.4302 6.888 41.3422 6.328C42.2702 5.768 43.3022 5.488 44.4382 5.488C45.4302 5.488 46.2942 5.688 47.0302 6.088C47.7822 6.488 48.3822 6.992 48.8302 7.6V5.704H52.2142V19H48.8302V17.056C48.3982 17.68 47.7982 18.2 47.0302 18.616C46.2782 19.016 45.4062 19.216 44.4142 19.216C43.2942 19.216 42.2702 18.928 41.3422 18.352C40.4302 17.776 39.7022 16.968 39.1582 15.928C38.6302 14.872 38.3662 13.664 38.3662 12.304ZM48.8302 12.352C48.8302 11.536 48.6702 10.84 48.3502 10.264C48.0302 9.672 47.5982 9.224 47.0542 8.92C46.5102 8.6 45.9262 8.44 45.3022 8.44C44.6782 8.44 44.1022 8.592 43.5742 8.896C43.0462 9.2 42.6142 9.648 42.2782 10.24C41.9582 10.816 41.7982 11.504 41.7982 12.304C41.7982 13.104 41.9582 13.808 42.2782 14.416C42.6142 15.008 43.0462 15.464 43.5742 15.784C44.1182 16.104 44.6942 16.264 45.3022 16.264C45.9262 16.264 46.5102 16.112 47.0542 15.808C47.5982 15.488 48.0302 15.04 48.3502 14.464C48.6702 13.872 48.8302 13.168 48.8302 12.352ZM68.5826 5.512C70.1666 5.512 71.4466 6.016 72.4226 7.024C73.3986 8.016 73.8866 9.408 73.8866 11.2V19H70.5266V11.656C70.5266 10.6 70.2626 9.792 69.7346 9.232C69.2066 8.656 68.4866 8.368 67.5746 8.368C66.6466 8.368 65.9106 8.656 65.3666 9.232C64.8386 9.792 64.5746 10.6 64.5746 11.656V19H61.2146V5.704H64.5746V7.36C65.0226 6.784 65.5906 6.336 66.2786 6.016C66.9826 5.68 67.7506 5.512 68.5826 5.512ZM82.9858 19.216C81.7058 19.216 80.5538 18.936 79.5298 18.376C78.5058 17.8 77.6978 16.992 77.1058 15.952C76.5298 14.912 76.2418 13.712 76.2418 12.352C76.2418 10.992 76.5378 9.792 77.1298 8.752C77.7378 7.712 78.5618 6.912 79.6018 6.352C80.6418 5.776 81.8018 5.488 83.0818 5.488C84.3618 5.488 85.5218 5.776 86.5618 6.352C87.6018 6.912 88.4178 7.712 89.0098 8.752C89.6178 9.792 89.9218 10.992 89.9218 12.352C89.9218 13.712 89.6098 14.912 88.9858 15.952C88.3778 16.992 87.5458 17.8 86.4898 18.376C85.4498 18.936 84.2818 19.216 82.9858 19.216ZM82.9858 16.288C83.5938 16.288 84.1618 16.144 84.6898 15.856C85.2338 15.552 85.6658 15.104 85.9858 14.512C86.3058 13.92 86.4658 13.2 86.4658 12.352C86.4658 11.088 86.1298 10.12 85.4578 9.448C84.8018 8.76 83.9938 8.416 83.0338 8.416C82.0738 8.416 81.2658 8.76 80.6098 9.448C79.9698 10.12 79.6498 11.088 79.6498 12.352C79.6498 13.616 79.9618 14.592 80.5858 15.28C81.2258 15.952 82.0258 16.288 82.9858 16.288ZM96.2985 8.464V14.896C96.2985 15.344 96.4025 15.672 96.6105 15.88C96.8345 16.072 97.2025 16.168 97.7145 16.168H99.2745V19H97.1625C94.3305 19 92.9145 17.624 92.9145 14.872V8.464H91.3305V5.704H92.9145V2.416H96.2985V5.704H99.2745V8.464H96.2985ZM114.243 5.704V19H110.859V17.32C110.427 17.896 109.859 18.352 109.155 18.688C108.467 19.008 107.715 19.168 106.899 19.168C105.859 19.168 104.939 18.952 104.139 18.52C103.339 18.072 102.707 17.424 102.243 16.576C101.795 15.712 101.571 14.688 101.571 13.504V5.704H104.931V13.024C104.931 14.08 105.195 14.896 105.723 15.472C106.251 16.032 106.971 16.312 107.883 16.312C108.811 16.312 109.539 16.032 110.067 15.472C110.595 14.896 110.859 14.08 110.859 13.024V5.704H114.243ZM120.918 7.768C121.35 7.064 121.91 6.512 122.598 6.112C123.302 5.712 124.102 5.512 124.998 5.512V9.04H124.11C123.054 9.04 122.254 9.288 121.71 9.784C121.182 10.28 120.918 11.144 120.918 12.376V19H117.558V5.704H120.918V7.768ZM134.629 5.512C136.213 5.512 137.493 6.016 138.469 7.024C139.445 8.016 139.933 9.408 139.933 11.2V19H136.573V11.656C136.573 10.6 136.309 9.792 135.781 9.232C135.253 8.656 134.533 8.368 133.621 8.368C132.693 8.368 131.957 8.656 131.413 9.232C130.885 9.792 130.621 10.6 130.621 11.656V19H127.261V5.704H130.621V7.36C131.069 6.784 131.637 6.336 132.325 6.016C133.029 5.68 133.797 5.512 134.629 5.512ZM142.265 12.304C142.265 10.96 142.529 9.768 143.057 8.728C143.601 7.688 144.329 6.888 145.241 6.328C146.169 5.768 147.201 5.488 148.337 5.488C149.329 5.488 150.193 5.688 150.929 6.088C151.681 6.488 152.281 6.992 152.729 7.6V5.704H156.113V19H152.729V17.056C152.297 17.68 151.697 18.2 150.929 18.616C150.177 19.016 149.305 19.216 148.313 19.216C147.193 19.216 146.169 18.928 145.241 18.352C144.329 17.776 143.601 16.968 143.057 15.928C142.529 14.872 142.265 13.664 142.265 12.304ZM152.729 12.352C152.729 11.536 152.569 10.84 152.249 10.264C151.929 9.672 151.497 9.224 150.953 8.92C150.409 8.6 149.825 8.44 149.201 8.44C148.577 8.44 148.001 8.592 147.473 8.896C146.945 9.2 146.513 9.648 146.177 10.24C145.857 10.816 145.697 11.504 145.697 12.304C145.697 13.104 145.857 13.808 146.177 14.416C146.513 15.008 146.945 15.464 147.473 15.784C148.017 16.104 148.593 16.264 149.201 16.264C149.825 16.264 150.409 16.112 150.953 15.808C151.497 15.488 151.929 15.04 152.249 14.464C152.569 13.872 152.729 13.168 152.729 12.352Z" fill="#47585B"/>
</svg>
